<svg width="129" height="97" viewBox="0 0 129 97" fill="none" xmlns="http://www.w3.org/2000/svg">
<path d="M56.8229 97C56.8229 97 48.8125 97 48.8125 88.9896C48.8125 80.9792 56.8229 56.9479 88.8646 56.9479C120.906 56.9479 128.917 80.9792 128.917 88.9896C128.917 97 120.906 97 120.906 97H56.8229ZM88.8646 48.9375C95.2381 48.9375 101.351 46.4056 105.857 41.8989C110.364 37.3922 112.896 31.2797 112.896 24.9062C112.896 18.5328 110.364 12.4203 105.857 7.91359C101.351 3.40686 95.2381 0.875 88.8646 0.875C82.4911 0.875 76.3787 3.40686 71.8719 7.91359C67.3652 12.4203 64.8333 18.5328 64.8333 24.9062C64.8333 31.2797 67.3652 37.3922 71.8719 41.8989C76.3787 46.4056 82.4911 48.9375 88.8646 48.9375Z" fill="#B4B4B4"/>
<path fill-rule="evenodd" clip-rule="evenodd" d="M42.5323 96.9991C41.3448 94.4984 40.7526 91.7566 40.8021 88.9887C40.8021 78.1346 46.2492 66.96 56.3102 59.1899C51.2885 57.6426 46.0565 56.8859 40.8021 56.947C8.76042 56.947 0.75 80.9783 0.75 88.9887C0.75 96.9991 8.76042 96.9991 8.76042 96.9991H42.5323Z" fill="#B4B4B4"/>
<path d="M36.7969 48.9376C42.1081 48.9376 47.2018 46.8277 50.9574 43.0721C54.713 39.3165 56.8229 34.2228 56.8229 28.9115C56.8229 23.6003 54.713 18.5066 50.9574 14.751C47.2018 10.9954 42.1081 8.8855 36.7969 8.8855C31.4856 8.8855 26.3919 10.9954 22.6363 14.751C18.8807 18.5066 16.7708 23.6003 16.7708 28.9115C16.7708 34.2228 18.8807 39.3165 22.6363 43.0721C26.3919 46.8277 31.4856 48.9376 36.7969 48.9376Z" fill="#B4B4B4"/>
</svg>
