<svg width="91" height="96" viewBox="0 0 91 96" fill="none" xmlns="http://www.w3.org/2000/svg">
<path fill-rule="evenodd" clip-rule="evenodd" d="M45.6015 0C33.6019 0 22.6676 3.979 16.1989 7.22994C15.6145 7.52329 15.0699 7.81132 14.5625 8.08867C13.5583 8.63805 12.7029 9.1501 12.0228 9.6008L19.3814 20.4764L22.8456 21.8605C36.3833 28.7171 54.5381 28.7171 68.0784 21.8605L72.0101 19.8123L78.9702 9.6008C77.5283 8.6567 76.0289 7.80429 74.4807 7.04859C68.0466 3.83232 57.3752 0 45.6015 0ZM28.4854 12.3104C25.8796 11.8208 23.306 11.1725 20.7788 10.3689C26.8383 7.6673 35.8706 4.8004 45.5988 4.8004C52.3384 4.8004 58.7115 6.17652 63.9821 7.92066C57.8056 8.79273 51.2147 10.2729 44.9347 12.0943C39.9935 13.5291 34.2182 13.3744 28.4854 12.3104ZM70.8837 25.8155L70.2329 26.1462C55.3377 33.6881 35.5837 33.6881 20.6885 26.1462L20.0721 25.8315C-2.30122 50.4762 -19.3828 96 45.6015 96C110.58 96 93.0818 49.6255 70.8837 25.8155ZM42.8387 48.004C41.4296 48.004 40.0782 48.5659 39.0818 49.5662C38.0854 50.5665 37.5256 51.9232 37.5256 53.3378C37.5256 54.7524 38.0854 56.109 39.0818 57.1093C40.0782 58.1096 41.4296 58.6716 42.8387 58.6716V48.004ZM48.1517 42.6702V40.0033H42.8387V42.6702C40.0204 42.6702 37.3176 43.7941 35.3248 45.7947C33.3321 47.7952 32.2125 50.5086 32.2125 53.3378C32.2125 56.167 33.3321 58.8803 35.3248 60.8809C37.3176 62.8814 40.0204 64.0053 42.8387 64.0053V74.6729C41.7399 74.6732 40.668 74.3314 39.7708 73.6948C38.8735 73.0581 38.1949 72.1578 37.8284 71.1179C37.5938 70.4509 37.1049 69.9048 36.4692 69.5997C35.8335 69.2947 35.1031 69.2556 34.4387 69.4911C33.7743 69.7266 33.2303 70.2175 32.9264 70.8557C32.6225 71.4939 32.5836 72.2271 32.8182 72.8941C33.551 74.9742 34.9081 76.7751 36.7026 78.0489C38.4971 79.3226 40.6409 80.0066 42.8387 80.0067V82.6736H48.1517V80.0067C50.97 80.0067 53.6728 78.8828 55.6656 76.8822C57.6584 74.8817 58.7779 72.1683 58.7779 69.3391C58.7779 66.5099 57.6584 63.7966 55.6656 61.796C53.6728 59.7955 50.97 58.6716 48.1517 58.6716V48.004C50.4629 48.004 52.4314 49.4841 53.1646 51.559C53.2734 51.8984 53.4489 52.2125 53.6807 52.4827C53.9125 52.7529 54.196 52.9736 54.5143 53.1319C54.8325 53.2902 55.1792 53.3828 55.5338 53.4043C55.8883 53.4257 56.2436 53.3756 56.5785 53.2568C56.9134 53.138 57.2212 52.953 57.4837 52.7127C57.7461 52.4724 57.9579 52.1817 58.1065 51.8578C58.2551 51.5339 58.3374 51.1834 58.3487 50.827C58.36 50.4706 58.3 50.1155 58.1722 49.7828C57.4394 47.7027 56.0823 45.9018 54.2878 44.628C52.4933 43.3542 50.3495 42.6703 48.1517 42.6702ZM48.1517 64.0053V74.6729C49.5609 74.6729 50.9123 74.1109 51.9087 73.1107C52.905 72.1104 53.4648 70.7537 53.4648 69.3391C53.4648 67.9245 52.905 66.5678 51.9087 65.5676C50.9123 64.5673 49.5609 64.0053 48.1517 64.0053Z" fill="#B90470"/>
</svg>
