<svg width="26" height="26" viewBox="0 0 26 26" fill="none" xmlns="http://www.w3.org/2000/svg">
<path d="M24.0556 6.01235C20.1663 -0.000198753 12.2257 -1.78771 6.06763 1.94982C0.0716488 5.68735 -1.87299 13.8124 2.01629 19.825L2.3404 20.3125L1.04397 25.1875L5.90557 23.8875L6.39173 24.2125C8.49843 25.35 10.7672 26 13.0359 26C15.4667 26 17.8975 25.35 20.0042 24.05C26.0002 20.15 27.7828 12.1874 24.0556 6.01235ZM20.6524 18.5249C20.0042 19.5 19.194 20.15 18.0596 20.3125C17.4114 20.3125 16.6011 20.6375 13.36 19.3374C10.6051 18.0374 8.33637 15.9249 6.71584 13.4874C5.74352 12.3499 5.25736 10.8874 5.09531 9.42487C5.09531 8.12486 5.58147 6.98736 6.39173 6.17485C6.71584 5.84985 7.03995 5.68735 7.36405 5.68735H8.17432C8.49843 5.68735 8.82253 5.68735 8.98459 6.33735C9.3087 7.14986 10.119 9.09987 10.119 9.26237C10.281 9.42487 10.281 9.74988 10.119 9.91238C10.281 10.2374 10.119 10.5624 9.95691 10.7249C9.79486 10.8874 9.6328 11.2124 9.47075 11.3749C9.14664 11.5374 8.98459 11.8624 9.14664 12.1874C9.79486 13.1624 10.6051 14.1374 11.4154 14.9499C12.3877 15.7624 13.36 16.4124 14.4944 16.8999C14.8185 17.0624 15.1426 17.0624 15.3047 16.7374C15.4667 16.4124 16.277 15.5999 16.6011 15.2749C16.9252 14.9499 17.0873 14.9499 17.4114 15.1124L20.0042 16.4124C20.3283 16.5749 20.6524 16.7374 20.8145 16.8999C20.9765 17.3874 20.9765 18.0374 20.6524 18.5249Z" fill="#B90470"/>
</svg>
