<svg width="160" height="96" viewBox="0 0 160 96" fill="none" xmlns="http://www.w3.org/2000/svg">
<path d="M159.36 4.9576C158.549 3.00375 156.996 1.4511 155.041 0.63969C154.08 0.22996 153.047 0.0126338 152.002 0H112.014C109.893 0 107.859 0.842449 106.359 2.34202C104.859 3.84158 104.016 5.87543 104.016 7.99614C104.016 10.1168 104.859 12.1507 106.359 13.6503C107.859 15.1498 109.893 15.9923 112.014 15.9923H132.728L88.0209 60.6907L61.7085 34.3034C60.965 33.554 60.0805 32.9591 59.1059 32.5531C58.1313 32.1472 57.0859 31.9382 56.0301 31.9382C54.9744 31.9382 53.929 32.1472 52.9544 32.5531C51.9798 32.9591 51.0953 33.554 50.3518 34.3034L2.3657 82.2803C1.61609 83.0236 1.02111 83.908 0.615077 84.8824C0.209045 85.8568 0 86.9019 0 87.9575C0 89.0131 0.209045 90.0582 0.615077 91.0326C1.02111 92.007 1.61609 92.8914 2.3657 93.6348C3.10919 94.3842 3.99374 94.9791 4.96833 95.385C5.94292 95.791 6.98827 96 8.04405 96C9.09984 96 10.1452 95.791 11.1198 95.385C12.0944 94.9791 12.9789 94.3842 13.7224 93.6348L56.0301 51.2552L82.3425 77.6425C83.086 78.3919 83.9706 78.9868 84.9451 79.3928C85.9197 79.7987 86.9651 80.0077 88.0209 80.0077C89.0767 80.0077 90.122 79.7987 91.0966 79.3928C92.0712 78.9868 92.9557 78.3919 93.6992 77.6425L144.005 27.2668V47.9768C144.005 50.0975 144.847 52.1314 146.347 53.6309C147.847 55.1305 149.881 55.973 152.002 55.973C154.123 55.973 156.158 55.1305 157.658 53.6309C159.157 52.1314 160 50.0975 160 47.9768V7.99614C159.987 6.95122 159.77 5.91892 159.36 4.9576Z" fill="#B4B4B4"/>
</svg>
