<svg width="26" height="21" viewBox="0 0 26 21" fill="none" xmlns="http://www.w3.org/2000/svg">
<path d="M8.2434e-09 5.978L12.5911 12.4425C12.7174 12.5073 12.8576 12.5412 13 12.5412C13.1424 12.5412 13.2826 12.5073 13.4089 12.4425L26 5.97917V17.2083C26.0001 18.1768 25.6247 19.1086 24.9509 19.8126C24.2772 20.5166 23.356 20.9393 22.3765 20.9942L22.1591 21H3.84091C2.85984 21.0001 1.91593 20.6295 1.20282 19.9644C0.489706 19.2992 0.061453 18.3899 0.00590923 17.423L8.2434e-09 17.2083V5.978ZM3.84091 8.13772e-09H22.1591C23.1402 -6.34045e-05 24.0841 0.37048 24.7972 1.03562C25.5103 1.70075 25.9385 2.61006 25.9941 3.577L26 3.79167V4.00633L13 10.6797L8.2434e-09 4.00633V3.79167C-6.42279e-05 2.82317 0.375291 1.89137 1.04907 1.1874C1.72284 0.483428 2.64396 0.0606651 3.62345 0.00583347L3.84091 8.13772e-09H22.1591H3.84091Z" fill="#B90470"/>
</svg>
